<svg width="320" height="160" viewBox="0 0 320 160" fill="none" xmlns="http://www.w3.org/2000/svg">
<path d="M319.999 80C319.999 35.8173 284.182 7.08658e-05 240 7.2797e-05C195.817 7.47283e-05 160 35.8173 160 80C160 124.183 195.817 160 240 160C284.182 160 319.999 124.183 319.999 80Z" fill="#5036E6"/>
<path d="M160 80C160 58.7827 168.429 38.4344 183.431 23.4315C198.434 8.4286 218.782 3.43854e-05 240 3.3458e-05L240 80L160 80Z" fill="#5036E6"/>
<path d="M320 80C320 101.217 311.571 121.566 296.568 136.569C281.565 151.571 261.217 160 240 160L240 80L320 80Z" fill="#5036E6"/>
<path d="M240 3.69549e-05C261.217 3.60274e-05 281.565 8.4286 296.568 23.4315C311.571 38.4344 320 58.7827 320 80L240 80L240 3.69549e-05Z" fill="white"/>
<path d="M200 80.0007C200 102.092 217.909 120.001 240 120.001C262.091 120.001 280 102.092 280 80.0007C280 57.9093 262.091 40.0007 240 40.0007C217.909 40.0007 200 57.9093 200 80.0007Z" fill="black"/>
<path d="M240 120C229.391 120 219.217 115.786 211.716 108.284C204.214 100.783 200 90.6086 200 80C200 69.3913 204.214 59.2172 211.716 51.7157C219.217 44.2143 229.391 40 240 40L240 120Z" fill="white"/>
<path d="M80.0001 160C35.8173 160 0.000120505 124.183 0.000118573 80L160 80C160 124.183 124.183 160 80.0001 160Z" fill="#5036E6"/>
<path d="M160 80C160 69.4942 157.931 59.0914 153.91 49.3853C149.89 39.6793 143.997 30.8601 136.569 23.4315C129.14 16.0028 120.321 10.11 110.615 6.08964C100.909 2.06927 90.5058 2.44164e-06 80.0001 2.90086e-06L80.0001 80L160 80Z" fill="#5036E6"/>
<path d="M5.49156e-05 80C5.58431e-05 101.217 8.42859 121.566 23.4315 136.569C38.4344 151.571 58.7827 160 80 160L80 80L5.49156e-05 80Z" fill="#5036E6"/>
<path d="M80 -2.38419e-06C69.4943 -1.92497e-06 59.0914 2.06926 49.3853 6.08964C39.6793 10.11 30.8602 16.0028 23.4315 23.4315C16.0028 30.8601 10.1101 39.6793 6.0897 49.3853C2.06932 59.0914 6.27217e-05 69.4943 6.31809e-05 80L80 80L80 -2.38419e-06Z" fill="black"/>
<path d="M40.0001 80C40.0001 57.9086 57.9087 40 80 40C102.091 40 120 57.9086 120 80C120 102.091 102.091 120 80 120C57.9087 120 40.0001 102.091 40.0001 80Z" fill="black"/>
<path d="M120 80C120 69.3913 115.786 59.2172 108.284 51.7157C100.783 44.2143 90.6087 40 80 40C69.3914 40 59.2172 44.2143 51.7158 51.7157C44.2143 59.2172 40.0001 69.3913 40.0001 80L120 80Z" fill="white"/>
</svg>
