<svg width="360" height="360" viewBox="0 0 360 360" fill="none" xmlns="http://www.w3.org/2000/svg">
<path d="M180 4.62537e-05C279.411 5.49445e-05 360 80.5888 360 180C360 279.411 279.411 360 180 360C80.5887 360 7.04529e-06 279.411 1.57361e-05 180C2.44269e-05 80.5888 80.5888 3.75629e-05 180 4.62537e-05Z" fill="#009465"/>
<path d="M180 360C227.739 360 273.523 341.036 307.279 307.279C341.036 273.523 360 227.739 360 180L180 180L180 360Z" fill="white"/>
<path d="M180 3.09949e-05C132.261 2.68214e-05 86.4774 18.9642 52.7208 52.7208C18.9643 86.4773 4.17347e-06 132.261 0 180L180 180L180 3.09949e-05Z" fill="black"/>
<path d="M180 90C229.706 90 270 130.294 270 180C270 229.706 229.706 270 180 270C130.294 270 90 229.706 90 180C90 130.294 130.294 90 180 90Z" fill="black"/>
<path d="M270 180C270 156.131 260.518 133.239 243.64 116.36C226.761 99.4821 203.869 90 180 90C156.131 90 133.239 99.4821 116.36 116.36C99.4821 133.239 90 156.131 90 180L270 180Z" fill="white"/>
</svg>
