<svg width="880" height="440" viewBox="0 0 880 440" fill="none" xmlns="http://www.w3.org/2000/svg">
<path d="M880 220C880 161.652 856.821 105.695 815.563 64.4365C774.305 23.1785 718.348 5.10091e-06 660 0L660 220L880 220Z" fill="#009465"/>
<path d="M660 1.9233e-05C781.503 2.98551e-05 880 98.4974 880 220C880 341.503 781.503 440 660 440C538.497 440 440 341.503 440 220C440 98.4973 538.497 8.61091e-06 660 1.9233e-05Z" fill="#009465"/>
<path d="M660 440C718.348 440 774.305 416.822 815.563 375.564C856.821 334.306 880 278.348 880 220L660 220L660 440Z" fill="white"/>
<path d="M660 1.9233e-05C601.652 1.41321e-05 545.695 23.1785 504.437 64.4365C463.179 105.694 440 161.652 440 220L660 220L660 1.9233e-05Z" fill="black"/>
<path d="M660 110C720.751 110 770 159.249 770 220C770 280.751 720.751 330 660 330C599.249 330 550 280.751 550 220C550 159.249 599.249 110 660 110Z" fill="black"/>
<path d="M770 220C770 190.826 758.411 162.847 737.782 142.218C717.153 121.589 689.174 110 660 110C630.826 110 602.847 121.589 582.218 142.218C561.589 162.847 550 190.826 550 220L770 220Z" fill="white"/>
<path d="M220 440C341.503 440 440 341.503 440 220C440 98.4974 341.503 0 220 0C98.4974 0 0 98.4974 0 220C0 341.503 98.4974 440 220 440Z" fill="black"/>
<path d="M440 220C440 248.891 434.31 277.499 423.253 304.19C412.197 330.882 395.992 355.135 375.564 375.564C355.135 395.992 330.882 412.197 304.19 423.254C277.499 434.31 248.891 440 220 440V220H440Z" fill="#009465"/>
</svg>
